<svg width="60" height="32" viewBox="0 0 60 32" fill="none" xmlns="http://www.w3.org/2000/svg">
<path d="M17.044 16.016C16.324 16.016 15.716 15.956 15.22 15.836C14.732 15.708 14.36 15.512 14.104 15.248C13.856 14.976 13.732 14.624 13.732 14.192C13.732 13.784 13.852 13.424 14.092 13.112C14.34 12.792 14.708 12.54 15.196 12.356C15.684 12.172 16.3 12.08 17.044 12.08C17.796 12.08 18.416 12.172 18.904 12.356C19.392 12.54 19.756 12.792 19.996 13.112C20.244 13.424 20.368 13.784 20.368 14.192C20.368 14.624 20.24 14.976 19.984 15.248C19.736 15.512 19.364 15.708 18.868 15.836C18.372 15.956 17.764 16.016 17.044 16.016ZM17.044 15.452C17.444 15.452 17.772 15.408 18.028 15.32C18.284 15.224 18.472 15.096 18.592 14.936C18.72 14.776 18.784 14.596 18.784 14.396C18.784 14.188 18.72 14.008 18.592 13.856C18.472 13.704 18.284 13.588 18.028 13.508C17.772 13.42 17.444 13.376 17.044 13.376C16.652 13.376 16.332 13.42 16.084 13.508C15.836 13.588 15.652 13.704 15.532 13.856C15.412 14.008 15.352 14.188 15.352 14.396C15.352 14.596 15.412 14.776 15.532 14.936C15.652 15.096 15.836 15.224 16.084 15.32C16.332 15.408 16.652 15.452 17.044 15.452ZM17.044 20.156C16.252 20.156 15.592 20.056 15.064 19.856C14.544 19.648 14.152 19.372 13.888 19.028C13.632 18.676 13.504 18.288 13.504 17.864C13.504 17.368 13.644 16.968 13.924 16.664C14.204 16.352 14.608 16.128 15.136 15.992C15.664 15.848 16.3 15.776 17.044 15.776C17.796 15.776 18.436 15.848 18.964 15.992C19.492 16.128 19.896 16.352 20.176 16.664C20.456 16.968 20.596 17.368 20.596 17.864C20.596 18.288 20.464 18.676 20.2 19.028C19.944 19.372 19.552 19.648 19.024 19.856C18.504 20.056 17.844 20.156 17.044 20.156ZM17.044 18.836C17.5 18.836 17.872 18.788 18.16 18.692C18.448 18.596 18.66 18.464 18.796 18.296C18.94 18.12 19.012 17.924 19.012 17.708C19.012 17.476 18.94 17.272 18.796 17.096C18.66 16.92 18.448 16.784 18.16 16.688C17.872 16.592 17.5 16.544 17.044 16.544C16.596 16.544 16.228 16.592 15.94 16.688C15.66 16.784 15.452 16.92 15.316 17.096C15.188 17.272 15.124 17.476 15.124 17.708C15.124 17.924 15.188 18.12 15.316 18.296C15.452 18.464 15.66 18.596 15.94 18.692C16.228 18.788 16.596 18.836 17.044 18.836Z" fill="white"/>
<path d="M24.8202 11.636H26.3802V20H24.8202V11.636ZM31.4082 14.036L27.8562 17.168L27.8922 16.208L31.6842 20H29.7042L26.4162 16.652L29.2842 14.036H31.4082Z" fill="white"/>
<path d="M31.9652 14.036H33.6212L36.2012 19.76L34.8572 20L31.9652 14.036ZM39.2612 14.036L35.1332 22.4H33.5132L35.2772 19.112L37.5932 14.036H39.2612Z" fill="white"/>
<path d="M47.0692 20H45.5092V14.036H47.0692V20ZM45.5932 17.132L45.6052 17.54C45.5892 17.652 45.5492 17.816 45.4852 18.032C45.4212 18.24 45.3212 18.464 45.1852 18.704C45.0572 18.944 44.8892 19.176 44.6812 19.4C44.4732 19.616 44.2172 19.796 43.9132 19.94C43.6092 20.076 43.2492 20.144 42.8332 20.144C42.5052 20.144 42.1812 20.104 41.8612 20.024C41.5492 19.944 41.2652 19.812 41.0092 19.628C40.7532 19.436 40.5492 19.18 40.3972 18.86C40.2452 18.54 40.1692 18.136 40.1692 17.648V14.036H41.7292V17.384C41.7292 17.768 41.7892 18.072 41.9092 18.296C42.0372 18.512 42.2212 18.664 42.4612 18.752C42.7012 18.84 42.9852 18.884 43.3132 18.884C43.7452 18.884 44.1172 18.792 44.4292 18.608C44.7412 18.416 44.9932 18.184 45.1852 17.912C45.3852 17.64 45.5212 17.38 45.5932 17.132Z" fill="white"/>
<path d="M1.10694 16L8.2272 1H51.7728L58.8931 16L51.7728 31H8.2272L1.10694 16Z" stroke="white" stroke-width="2"/>
</svg>
