<svg width="108" height="40" viewBox="0 0 108 40" fill="none" xmlns="http://www.w3.org/2000/svg">
<g clip-path="url(#clip0_104_29)">
<path d="M55.7583 13.2491L60.8965 12.9179C61.0138 13.7557 61.2287 14.3792 61.5803 14.8273C62.1469 15.5287 62.9284 15.8794 63.9638 15.8794C64.7258 15.8794 65.3314 15.7041 65.7417 15.3339C66.1324 15.0416 66.3669 14.574 66.3669 14.0869C66.3669 13.6193 66.152 13.1712 65.7808 12.8789C65.39 12.5282 64.4718 12.1775 63.0261 11.8658C60.6621 11.3397 58.9624 10.6383 57.966 9.74205C56.9696 8.90425 56.403 7.67678 56.4421 6.37137C56.4421 5.47512 56.7156 4.57888 57.2236 3.8385C57.8097 3.0007 58.6107 2.33825 59.568 1.96806C60.6035 1.51994 62.0492 1.28613 63.8661 1.28613C66.0933 1.28613 67.7931 1.69529 68.9653 2.53309C70.1375 3.3514 70.8408 4.67629 71.0557 6.48828L65.9761 6.78053C65.8394 6.00118 65.5658 5.43616 65.1165 5.06597C64.6671 4.69578 64.081 4.52042 63.3191 4.52042C62.6939 4.52042 62.225 4.65681 61.9124 4.9101C61.6194 5.1439 61.424 5.49461 61.4436 5.88428C61.4436 6.17654 61.5999 6.44931 61.8343 6.62466C62.0883 6.85847 62.6939 7.07279 63.6512 7.26762C66.0152 7.7742 67.6954 8.28077 68.7308 8.80683C69.7663 9.33289 70.5087 9.97585 70.958 10.7357C71.4269 11.5151 71.6614 12.4113 71.6418 13.327C71.6418 14.4181 71.3292 15.5092 70.7041 16.425C70.0593 17.3797 69.1606 18.12 68.1056 18.5682C66.992 19.0553 65.5854 19.3085 63.9052 19.3085C60.9356 19.3085 58.8842 18.7435 57.7315 17.594C56.5789 16.4444 55.8951 15.0026 55.7583 13.2491ZM1.23082 19.0163V1.59787H10.2373C11.898 1.59787 13.1874 1.73426 14.0666 2.02651C14.9262 2.29928 15.6881 2.86431 16.1961 3.62417C16.7627 4.46197 17.0362 5.43616 17.0166 6.44931C17.0753 8.16387 16.1961 9.8005 14.6918 10.6578C14.1056 10.989 13.4609 11.2228 12.7967 11.3397C13.2851 11.4761 13.7735 11.7099 14.2033 11.9827C14.5355 12.2554 14.809 12.5672 15.063 12.8984C15.356 13.2296 15.61 13.5998 15.8249 13.9895L18.4428 19.0358H12.3082L9.41679 13.6778C9.04559 12.9958 8.733 12.5477 8.43994 12.3334C8.0492 12.0606 7.58032 11.9242 7.11143 11.9242H6.64255V18.9968H1.23082V19.0163ZM6.64255 8.65096H8.92836C9.41679 8.612 9.88567 8.53406 10.3546 8.41716C10.7062 8.35871 11.0188 8.16387 11.2337 7.87162C11.7612 7.17021 11.6831 6.17654 11.0384 5.57254C10.6867 5.28029 10.0029 5.12442 9.02605 5.12442H6.64255V8.65096ZM0 33.9408L5.13821 33.6096C5.25543 34.4474 5.47033 35.0708 5.822 35.519C6.36903 36.2204 7.17004 36.5906 8.2055 36.5906C8.96744 36.5906 9.57308 36.4152 9.98336 36.045C10.3741 35.7333 10.6085 35.2852 10.6085 34.7981C10.6085 34.3305 10.3936 33.8823 10.0224 33.5901C9.63169 33.2394 8.71346 32.8887 7.24819 32.5769C4.88423 32.0509 3.18452 31.3495 2.18813 30.4532C1.19175 29.6154 0.625181 28.3879 0.664255 27.0825C0.664255 26.1863 0.937771 25.29 1.44573 24.5496C2.03184 23.7118 2.83285 23.0494 3.79016 22.6792C4.82561 22.2311 6.27135 21.9973 8.08828 21.9973C10.3155 21.9973 12.0152 22.4064 13.1874 23.2442C14.3596 24.082 15.0434 25.3874 15.2583 27.1994L10.1787 27.4917C10.042 26.7123 9.76845 26.1473 9.3191 25.7771C8.88929 25.4069 8.28365 25.2316 7.52171 25.2511C6.89653 25.2511 6.42764 25.3874 6.11505 25.6602C5.80246 25.894 5.62663 26.2447 5.64616 26.6344C5.64616 26.9267 5.80246 27.1994 6.0369 27.3748C6.29088 27.6086 6.89653 27.8229 7.85384 28.0177C10.2178 28.5243 11.898 29.0309 12.9334 29.557C13.9689 30.083 14.7113 30.726 15.1606 31.4858C15.6295 32.2652 15.864 33.1614 15.864 34.0577C15.864 35.1488 15.5318 36.2204 14.9262 37.1361C14.2815 38.0908 13.3828 38.8312 12.3278 39.2793C11.2142 39.7664 9.80753 40.0197 8.12735 40.0197C5.15774 40.0197 3.10637 39.4547 1.95369 38.3051C0.801013 37.1361 0.156295 35.6943 0 33.9408Z" fill="white"/>
<path d="M25.9841 32.5767L30.712 33.999C30.458 35.1875 29.9305 36.3176 29.2077 37.3112C28.5434 38.188 27.6643 38.8699 26.6679 39.3181C25.652 39.7662 24.3625 40 22.7996 40C20.9045 40 19.3415 39.7272 18.1498 39.1817C16.9385 38.6361 15.903 37.662 15.0239 36.2786C14.1447 34.8953 13.7149 33.1223 13.7149 30.9596C13.7149 28.076 14.4768 25.8548 16.0203 24.3156C17.5637 22.7764 19.7323 21.9971 22.5456 21.9971C24.7533 21.9971 26.4725 22.4452 27.7424 23.322C28.9928 24.2182 29.9305 25.5821 30.5557 27.4135L25.7887 28.4657C25.6715 28.0565 25.4957 27.6473 25.2612 27.2966C24.9682 26.8875 24.597 26.5757 24.1476 26.3419C23.6983 26.1081 23.1903 26.0107 22.6823 26.0107C21.4515 26.0107 20.5137 26.4978 19.869 27.4915C19.3806 28.2124 19.1266 29.3619 19.1266 30.9206C19.1266 32.8495 19.4197 34.1744 20.0058 34.8953C20.5919 35.6162 21.4124 35.9669 22.487 35.9669C23.5224 35.9669 24.3039 35.6746 24.8314 35.1096C25.3589 34.5056 25.7496 33.6678 25.9841 32.5767ZM37.0224 22.2893H42.4146V28.3877H48.3148V22.2893H53.746V39.7077H48.3148V32.6546H42.4146V39.7077H37.0224V22.2893Z" fill="white"/>
<path d="M53.0036 30.9985C53.0036 28.1539 53.8046 25.9327 55.3871 24.3545C56.9696 22.7764 59.1968 21.9775 62.0297 21.9775C64.9407 21.9775 67.1679 22.7569 68.7504 24.3156C70.3329 25.8743 71.1143 28.0564 71.1143 30.8621C71.1143 32.9079 70.7627 34.564 70.0789 35.8694C69.4146 37.1553 68.3792 38.2074 67.1093 38.9089C65.8003 39.6298 64.1787 39.9999 62.2446 39.9999C60.2714 39.9999 58.6498 39.6882 57.3604 39.0647C56.0319 38.4023 54.9378 37.3696 54.2149 36.1032C53.4139 34.7394 53.0036 33.0443 53.0036 30.9985ZM58.3958 31.018C58.3958 32.7715 58.7279 34.0379 59.3727 34.8173C60.0174 35.5771 60.9161 35.9668 62.0492 35.9668C63.2019 35.9668 64.1006 35.5966 64.7453 34.8368C65.39 34.0769 65.7026 32.7325 65.7026 30.7842C65.7026 29.1475 65.3705 27.9395 64.7062 27.1992C64.042 26.4393 63.1433 26.0691 62.0101 26.0691C61.0138 26.0301 60.0565 26.4588 59.3922 27.2186C58.7279 27.9785 58.3958 29.245 58.3958 31.018ZM76.6433 30.9985C76.6433 28.1539 77.4443 25.9327 79.0268 24.3545C80.6093 22.7764 82.8365 21.9775 85.6693 21.9775C88.5803 21.9775 90.8271 22.7569 92.39 24.3156C93.953 25.8743 94.754 28.0564 94.754 30.8621C94.754 32.9079 94.4023 34.564 93.7185 35.8694C93.0543 37.1553 92.0188 38.2074 90.7489 38.9089C89.44 39.6298 87.8184 39.9999 85.8842 39.9999C83.911 39.9999 82.2895 39.6882 81 39.0647C79.6715 38.4023 78.5774 37.3696 77.8546 36.1032C77.0536 34.7394 76.6433 33.0443 76.6433 30.9985ZM82.0355 31.018C82.0355 32.7715 82.3676 34.0379 83.0123 34.8173C83.657 35.5771 84.5557 35.9668 85.6889 35.9668C86.8416 35.9668 87.7402 35.5966 88.385 34.8368C89.0297 34.0769 89.3423 32.7325 89.3423 30.7842C89.3423 29.1475 89.0102 27.9395 88.3459 27.1992C87.6816 26.4393 86.7829 26.0691 85.6498 26.0691C84.6534 26.0301 83.6766 26.4588 83.0319 27.2186C82.3676 27.9785 82.0355 29.245 82.0355 31.018Z" fill="white"/>
<path d="M94.1874 22.2896H99.5796V35.4216H108V39.708H94.1679V22.2896H94.1874Z" fill="white"/>
<path d="M88.244 21.2843C93.6728 17.2044 95.3469 10.2884 91.9831 5.83687C88.6194 1.38536 81.4917 1.08411 76.0629 5.16399C70.6341 9.24387 68.9601 16.1599 72.3238 20.6114C75.6875 25.0629 82.8153 25.3642 88.244 21.2843Z" fill="white"/>
<mask id="mask0_104_29" style="mask-type:luminance" maskUnits="userSpaceOnUse" x="70" y="2" width="24" height="23">
<path d="M88.244 21.2838C93.6728 17.2039 95.3469 10.2879 91.9831 5.83638C88.6194 1.38488 81.4917 1.08362 76.0629 5.1635C70.6341 9.24338 68.9601 16.1594 72.3238 20.6109C75.6875 25.0624 82.8153 25.3637 88.244 21.2838Z" fill="white"/>
</mask>
<g mask="url(#mask0_104_29)">
<path d="M58.4788 11.0161L86.5324 -10.067L105.945 15.6229L77.8911 36.7059L58.4788 11.0161Z" fill="white"/>
<mask id="mask1_104_29" style="mask-type:luminance" maskUnits="userSpaceOnUse" x="58" y="-11" width="48" height="48">
<path d="M58.4788 11.0161L86.5324 -10.067L105.945 15.6229L77.8911 36.7059L58.4788 11.0161Z" fill="white"/>
</mask>
<g mask="url(#mask1_104_29)">
<path d="M88.244 21.2838C93.6728 17.2039 95.3469 10.2879 91.9831 5.83638C88.6194 1.38488 81.4917 1.08362 76.0629 5.1635C70.6341 9.24338 68.9601 16.1594 72.3238 20.6109C75.6875 25.0624 82.8153 25.3637 88.244 21.2838Z" fill="white"/>
<mask id="mask2_104_29" style="mask-type:luminance" maskUnits="userSpaceOnUse" x="70" y="2" width="24" height="23">
<path d="M88.244 21.2838C93.6728 17.2039 95.3469 10.2879 91.9831 5.83638C88.6194 1.38488 81.4917 1.08362 76.0629 5.1635C70.6341 9.24338 68.9601 16.1594 72.3238 20.6109C75.6875 25.0624 82.8153 25.3637 88.244 21.2838Z" fill="white"/>
</mask>
<g mask="url(#mask2_104_29)">
<path d="M66.2908 12.7314L85.9348 -2.03105L98.1274 14.105L78.4834 28.8675L66.2908 12.7314Z" fill="white"/>
<mask id="mask3_104_29" style="mask-type:luminance" maskUnits="userSpaceOnUse" x="66" y="-3" width="33" height="32">
<path d="M66.2908 12.7319L85.9348 -2.03056L98.1274 14.1055L78.4834 28.868L66.2908 12.7319Z" fill="white"/>
</mask>
<g mask="url(#mask3_104_29)">
<path d="M88.244 21.2843C93.6728 17.2044 95.3469 10.2884 91.9831 5.83687C88.6194 1.38536 81.4917 1.08411 76.0629 5.16399C70.6341 9.24387 68.9601 16.1599 72.3238 20.6114C75.6875 25.0629 82.8153 25.3642 88.244 21.2843Z" fill="white" stroke="white" stroke-width="4" stroke-miterlimit="10"/>
</g>
<mask id="mask4_104_29" style="mask-type:luminance" maskUnits="userSpaceOnUse" x="69" y="-2" width="27" height="30">
<path d="M69.0901 22.416L75.8628 -1.15732L95.3449 4.4182L88.5722 27.9915L69.0901 22.416Z" fill="white"/>
</mask>
<g mask="url(#mask4_104_29)">
<path d="M66.2908 12.7261L85.9291 -2.03063L98.1274 14.1113L78.4891 28.868L66.2908 12.7261Z" stroke="white" stroke-width="4" stroke-miterlimit="10"/>
</g>
<path d="M88.244 21.2843C93.6728 17.2044 95.3469 10.2884 91.9831 5.83687C88.6194 1.38536 81.4917 1.08411 76.0629 5.16399C70.6341 9.24387 68.9601 16.1599 72.3238 20.6114C75.6875 25.0629 82.8153 25.3642 88.244 21.2843Z" stroke="white" stroke-width="4" stroke-miterlimit="10"/>
<path d="M66.2908 12.7314L85.9348 -2.03105L98.1274 14.105L78.4834 28.8675L66.2908 12.7314Z" fill="white"/>
<mask id="mask5_104_29" style="mask-type:luminance" maskUnits="userSpaceOnUse" x="66" y="-3" width="33" height="32">
<path d="M66.2908 12.7319L85.9348 -2.03056L98.1274 14.1055L78.4834 28.868L66.2908 12.7319Z" fill="white"/>
</mask>
<g mask="url(#mask5_104_29)">
<path d="M88.244 21.2843C93.6728 17.2044 95.3469 10.2884 91.9831 5.83687C88.6194 1.38536 81.4917 1.08411 76.0629 5.16399C70.6341 9.24387 68.9601 16.1599 72.3238 20.6114C75.6875 25.0629 82.8153 25.3642 88.244 21.2843Z" fill="white" stroke="white" stroke-width="4" stroke-miterlimit="10"/>
</g>
<mask id="mask6_104_29" style="mask-type:luminance" maskUnits="userSpaceOnUse" x="69" y="-2" width="27" height="30">
<path d="M69.0901 22.416L75.8628 -1.15732L95.3449 4.4182L88.5722 27.9915L69.0901 22.416Z" fill="white"/>
</mask>
<g mask="url(#mask6_104_29)">
<path d="M66.2908 12.7261L85.9291 -2.03063L98.1274 14.1113L78.4891 28.868L66.2908 12.7261Z" stroke="white" stroke-width="4" stroke-miterlimit="10"/>
</g>
<path d="M58.4788 11.0161L86.5324 -10.067L105.945 15.6229L77.8911 36.7059L58.4788 11.0161Z" stroke="white" stroke-width="4" stroke-miterlimit="10"/>
</g>
<path d="M88.244 21.2838C93.6728 17.2039 95.3469 10.2879 91.9831 5.83638C88.6194 1.38488 81.4917 1.08362 76.0629 5.1635C70.6341 9.24338 68.9601 16.1594 72.3238 20.6109C75.6875 25.0624 82.8153 25.3637 88.244 21.2838Z" stroke="white" stroke-width="4" stroke-miterlimit="10"/>
<path d="M76.6628 11.9433L78.6165 10.5794L81.0195 13.9891C81.4298 14.5346 81.7424 15.1191 81.9768 15.7621C82.1136 16.2492 82.0745 16.7752 81.8792 17.2429C81.6252 17.8274 81.2149 18.3145 80.6679 18.6652C80.0232 19.1133 79.4761 19.3666 79.0072 19.4445C78.5579 19.5224 78.089 19.4445 77.6592 19.2497C77.1903 19.0159 76.78 18.6846 76.4674 18.256L78.1476 16.6973C78.2844 16.9116 78.4602 17.1065 78.6556 17.2623C78.7923 17.3598 78.9486 17.4182 79.1245 17.4182C79.2612 17.4182 79.398 17.3598 79.4957 17.2818C79.691 17.1649 79.8278 16.9311 79.8082 16.6973C79.7496 16.3661 79.6129 16.0349 79.398 15.7816L76.6628 11.9433ZM82.5239 14.106L84.3017 12.7032C84.4971 12.937 84.7511 13.1123 85.0246 13.2097C85.4153 13.3266 85.8256 13.2487 86.1577 12.9954C86.3922 12.8395 86.5876 12.6252 86.6657 12.3525C86.7829 12.0017 86.5876 11.6121 86.2359 11.4952C86.1773 11.4757 86.1187 11.4562 86.0601 11.4562C85.8256 11.4367 85.4153 11.5341 84.8097 11.7874C83.8133 12.1966 83.0318 12.3525 82.4457 12.294C81.8792 12.2355 81.3517 11.9433 81.0391 11.4562C80.8046 11.125 80.6874 10.7353 80.6679 10.3456C80.6679 9.89751 80.7851 9.44938 81.0391 9.07919C81.4103 8.55313 81.8596 8.10501 82.4067 7.7543C83.2272 7.18928 83.9501 6.9165 84.5753 6.9165C85.2004 6.9165 85.7865 7.20876 86.3336 7.81275L84.5753 9.19609C84.2236 8.74797 83.5593 8.65055 83.11 9.00126L83.0514 9.05971C82.856 9.17661 82.7192 9.35196 82.6411 9.56628C82.5825 9.72215 82.6216 9.89751 82.7192 10.0339C82.7974 10.1313 82.9146 10.2092 83.0514 10.2092C83.2077 10.2287 83.4812 10.1508 83.8719 9.97544C84.8488 9.56628 85.5912 9.33248 86.0991 9.25455C86.5289 9.17661 86.9783 9.21558 87.3886 9.39093C87.7598 9.5468 88.0724 9.81957 88.2873 10.1508C88.5608 10.5405 88.7171 11.0081 88.7366 11.4952C88.7562 12.0017 88.6194 12.4888 88.3459 12.9175C87.9942 13.4435 87.5449 13.8917 87.0174 14.2424C85.9428 14.9827 85.0637 15.2945 84.3603 15.1776C83.5984 15.0607 82.9732 14.671 82.5239 14.106Z" fill="black"/>
</g>
</g>
</g>
<defs>
<clipPath id="clip0_104_29">
<rect width="108" height="40" fill="white"/>
</clipPath>
</defs>
</svg>
