<svg width="460" height="600" viewBox="0 0 460 600" fill="none" xmlns="http://www.w3.org/2000/svg">
<g clip-path="url(#clip0_103_73)">
<rect width="460" height="600" rx="40" fill="#4F5BF5"/>
<path opacity="0.2" fill-rule="evenodd" clip-rule="evenodd" d="M-1.86731 110H23.7275L23.9514 110.692C25.3364 114.973 28.1696 118.527 32.5288 121.351C36.9909 124.024 42.8577 125.4 50.2 125.4C55.2246 125.4 59.0333 124.935 61.6838 124.051C64.3505 123.162 66.0392 121.944 66.9399 120.49C67.91 118.786 68.4 116.897 68.4 114.8C68.4 112.219 67.6114 110.397 66.154 109.163L66.1376 109.149L66.1217 109.135C64.5597 107.693 62.0725 106.481 58.549 105.568C54.9985 104.647 50.4385 103.787 44.8586 102.99L44.8471 102.988L44.8356 102.986C39.209 102.049 33.7809 100.91 28.5516 99.5687C23.2881 98.219 18.6112 96.4593 14.5294 94.2824L14.5181 94.2763L14.507 94.27C10.3965 91.9407 7.08232 89.048 4.58845 85.5843L4.57532 85.5661L4.56302 85.5473C2.17106 81.889 0.999985 77.49 0.999985 72.4C0.999985 67.4357 2.17429 62.9861 4.5452 59.081L4.55186 59.07L4.55881 59.0592C7.04749 55.188 10.4278 51.952 14.6774 49.3474L14.6894 49.3401C19.0554 46.7477 24.0856 44.7802 29.7684 43.4272L29.7735 43.426C35.5887 42.0736 41.7986 41.4 48.4 41.4C58.354 41.4 66.7021 42.8779 73.4018 45.8843C80.0836 48.7494 85.1199 52.8682 88.4438 58.2632C91.8895 63.5062 93.6 69.5637 93.6 76.4V77.4H68.7931L68.6226 76.6113C67.5931 71.8499 65.5681 68.5806 62.6453 66.632L62.6335 66.6242L62.622 66.616C59.6727 64.527 54.9896 63.4 48.4 63.4C41.9385 63.4 37.2197 64.3944 34.1145 66.2575C31.0386 68.103 29.6 70.5328 29.6 73.6C29.6 76.115 30.4766 78.0078 32.1967 79.3966C34.1837 80.7541 37.1038 81.9104 41.0235 82.8253C45.1344 83.7535 50.2492 84.7501 56.3713 85.8148L56.3862 85.8174L56.4009 85.8204C61.6219 86.8914 66.5785 88.0968 71.2704 89.4372C76.1319 90.7879 80.4725 92.5483 84.2845 94.7251C88.1544 96.8008 91.2133 99.6462 93.4398 103.257C95.8391 106.795 97 111.267 97 116.6C97 123.206 95.0681 128.841 91.1683 133.44C87.4253 138.012 82.0562 141.499 75.1328 143.943L75.1245 143.946L75.1162 143.949C68.1875 146.258 59.9418 147.4 50.4 147.4C41.9354 147.4 34.5728 146.527 28.328 144.762L28.3154 144.759L28.3029 144.755C22.2311 142.866 17.1314 140.493 13.0265 137.619L13.0175 137.613L13.0086 137.606C8.94383 134.626 5.7267 131.485 3.38396 128.178L3.37038 128.159L3.35771 128.139C1.18532 124.745 -0.331513 121.518 -1.16478 118.463C-1.98131 115.469 -2.28418 112.918 -1.98996 110.859L-1.86731 110ZM92.6 103.8C90.4667 100.333 87.5333 97.6 83.8 95.6C80.0667 93.4667 75.8 91.7333 71 90.4C66.3333 89.0667 61.4 87.8667 56.2 86.8C50.0667 85.7333 44.9333 84.7333 40.8 83.8C36.8 82.8667 33.7333 81.6667 31.6 80.2C29.6 78.6 28.6 76.4 28.6 73.6C28.6 70.1333 30.2667 67.4 33.6 65.4C36.9333 63.4 41.8667 62.4 48.4 62.4C55.0667 62.4 60 63.5333 63.2 65.8C66.4 67.9333 68.5333 71.4667 69.6 76.4H92.6C92.6 76.0646 92.5958 75.7313 92.5873 75.4C92.4281 69.1451 90.7656 63.6118 87.6 58.8C84.4 53.6 79.5333 49.6 73 46.8C66.4667 43.8667 58.2667 42.4 48.4 42.4C41.8667 42.4 35.7333 43.0667 30 44.4C24.4 45.7333 19.4667 47.6667 15.2 50.2C11.0667 52.7333 7.79999 55.8667 5.39998 59.6C3.13332 63.3333 1.99999 67.6 1.99999 72.4C1.99999 77.3333 3.13332 81.5333 5.39998 85C7.79999 88.3333 11 91.1333 15 93.4C19 95.5333 23.6 97.2667 28.8 98.6C34 99.9333 39.4 101.067 45 102C50.6 102.8 55.2 103.667 58.8 104.6C62.4 105.533 65.0667 106.8 66.8 108.4C68.5333 109.867 69.4 112 69.4 114.8C69.4 117.067 68.8667 119.133 67.8 121C66.7333 122.733 64.8 124.067 62 125C59.2 125.933 55.2667 126.4 50.2 126.4C42.7333 126.4 36.6667 125 32 122.2C27.4667 119.267 24.4667 115.533 23 111H-1.00002C-1.26668 112.867 -1.00002 115.267 -0.200015 118.2C0.599984 121.133 2.06665 124.267 4.19998 127.6C6.46665 130.8 9.59998 133.867 13.6 136.8C17.6 139.6 22.6 141.933 28.6 143.8C34.7333 145.533 42 146.4 50.4 146.4C59.8667 146.4 68 145.267 74.8 143C81.6 140.6 86.8 137.2 90.4 132.8C94.1333 128.4 96 123 96 116.6C96 111.4 94.8667 107.133 92.6 103.8ZM116.691 3.6H144.691V86.4817L191.703 43.6H230.137L178.572 89.0674L234.505 145H198.671L144.691 90.0345V145H116.691V3.6ZM143.691 4.6H117.691V144H143.691V4.6ZM199.091 144H232.091L177.112 89.0216L227.491 44.6H192.091L144.291 88.1999L199.091 144ZM276.573 0V24.8H244.373V0H276.573ZM246.373 43.6H274.373V145H246.373V43.6ZM300.289 3.6H328.289V145H300.289V3.6ZM354.586 3.6H382.586V145H354.586V3.6ZM403.015 110H428.61L428.834 110.692C430.219 114.973 433.052 118.527 437.412 121.351C441.874 124.024 447.74 125.4 455.083 125.4C460.107 125.4 463.916 124.935 466.567 124.051C469.234 123.162 470.922 121.944 471.823 120.489C472.793 118.786 473.283 116.896 473.283 114.8C473.283 112.219 472.494 110.397 471.037 109.163L471.02 109.149L471.005 109.135C469.443 107.693 466.955 106.481 463.432 105.568C459.881 104.647 455.321 103.787 449.741 102.99L449.73 102.988L449.718 102.986C444.092 102.049 438.664 100.91 433.434 99.5687C428.171 98.219 423.494 96.4593 419.412 94.2824L419.401 94.2763L419.39 94.27C415.279 91.9407 411.965 89.048 409.471 85.5843L409.458 85.5661L409.446 85.5473C407.054 81.889 405.883 77.49 405.883 72.4C405.883 67.4357 407.057 62.9861 409.428 59.081L409.435 59.07L409.442 59.0592C411.93 55.188 415.311 51.952 419.56 49.3474L419.572 49.3401C423.938 46.7478 428.968 44.7802 434.651 43.4272L434.656 43.426C440.471 42.0736 446.681 41.4 453.283 41.4C463.237 41.4 471.585 42.878 478.285 45.8844C484.967 48.7495 490.003 52.8682 493.327 58.263C496.772 63.506 498.483 69.5636 498.483 76.4V77.4H473.676L473.505 76.6113C472.476 71.8499 470.451 68.5806 467.528 66.632L467.516 66.6242L467.505 66.616C464.556 64.527 459.872 63.4 453.283 63.4C446.821 63.4 442.103 64.3944 438.997 66.2575C435.921 68.103 434.483 70.5328 434.483 73.6C434.483 76.115 435.359 78.0078 437.079 79.3966C439.066 80.7541 441.986 81.9103 445.906 82.8252C450.017 83.7534 455.132 84.7501 461.254 85.8148L461.269 85.8174L461.284 85.8204C466.505 86.8914 471.462 88.0969 476.154 89.4374C481.015 90.788 485.355 92.5484 489.168 94.7253C493.037 96.8009 496.096 99.6461 498.322 103.256C500.722 106.795 501.883 111.267 501.883 116.6C501.883 123.206 499.951 128.841 496.051 133.44C492.308 138.012 486.939 141.499 480.016 143.943L480.007 143.946L479.999 143.949C473.07 146.258 464.825 147.4 455.283 147.4C446.818 147.4 439.456 146.527 433.211 144.762L433.198 144.759L433.186 144.755C427.114 142.866 422.014 140.493 417.909 137.619L417.9 137.613L417.891 137.606C413.827 134.626 410.609 131.485 408.267 128.178L408.253 128.159L408.241 128.139C406.068 124.745 404.551 121.518 403.718 118.463C402.901 115.469 402.599 112.918 402.893 110.859L403.015 110ZM497.483 103.8C495.349 100.333 492.416 97.6 488.683 95.6C484.949 93.4667 480.683 91.7333 475.883 90.4C471.216 89.0667 466.283 87.8667 461.083 86.8C454.949 85.7333 449.816 84.7333 445.683 83.8C441.683 82.8667 438.616 81.6667 436.483 80.2C434.483 78.6 433.483 76.4 433.483 73.6C433.483 70.1333 435.149 67.4 438.483 65.4C441.816 63.4 446.749 62.4 453.283 62.4C459.949 62.4 464.883 63.5333 468.083 65.8C471.283 67.9333 473.416 71.4667 474.483 76.4H497.483C497.483 76.0646 497.479 75.7313 497.47 75.4C497.311 69.1451 495.648 63.6118 492.483 58.8C489.283 53.6 484.416 49.6 477.883 46.8C471.349 43.8667 463.149 42.4 453.283 42.4C446.749 42.4 440.616 43.0667 434.883 44.4C429.283 45.7333 424.349 47.6667 420.083 50.2C415.949 52.7333 412.683 55.8667 410.283 59.6C408.016 63.3333 406.883 67.6 406.883 72.4C406.883 77.3333 408.016 81.5333 410.283 85C412.683 88.3333 415.883 91.1333 419.883 93.4C423.883 95.5333 428.483 97.2667 433.683 98.6C438.883 99.9333 444.283 101.067 449.883 102C455.483 102.8 460.083 103.667 463.683 104.6C467.283 105.533 469.949 106.8 471.683 108.4C473.416 109.867 474.283 112 474.283 114.8C474.283 117.067 473.749 119.133 472.683 121C471.616 122.733 469.683 124.067 466.883 125C464.083 125.933 460.149 126.4 455.083 126.4C447.616 126.4 441.549 125 436.883 122.2C432.349 119.267 429.349 115.533 427.883 111H403.883C403.616 112.867 403.883 115.267 404.683 118.2C405.483 121.133 406.949 124.267 409.083 127.6C411.349 130.8 414.483 133.867 418.483 136.8C422.483 139.6 427.483 141.933 433.483 143.8C439.616 145.533 446.883 146.4 455.283 146.4C464.749 146.4 472.883 145.267 479.683 143C486.483 140.6 491.683 137.2 495.283 132.8C499.016 128.4 500.883 123 500.883 116.6C500.883 111.4 499.749 107.133 497.483 103.8ZM275.573 1H245.373V23.8H275.573V1ZM247.373 44.6V144H273.373V44.6H247.373ZM301.289 4.6V144H327.289V4.6H301.289ZM355.586 4.6V144H381.586V4.6H355.586Z" fill="white"/>
<g opacity="0.1">
<path d="M66 243H90C91.4667 247.533 94.4667 251.267 99 254.2C103.667 257 109.733 258.4 117.2 258.4C122.267 258.4 126.2 257.933 129 257C131.8 256.067 133.733 254.733 134.8 253C135.867 251.133 136.4 249.067 136.4 246.8C136.4 244 135.533 241.867 133.8 240.4C132.067 238.8 129.4 237.533 125.8 236.6C122.2 235.667 117.6 234.8 112 234C106.4 233.067 101 231.933 95.8 230.6C90.6 229.267 86 227.533 82 225.4C78 223.133 74.8 220.333 72.4 217C70.1334 213.533 69 209.333 69 204.4C69 199.6 70.1334 195.333 72.4 191.6C74.8 187.867 78.0667 184.733 82.2 182.2C86.4667 179.667 91.4 177.733 97 176.4C102.733 175.067 108.867 174.4 115.4 174.4C125.267 174.4 133.467 175.867 140 178.8C146.533 181.6 151.4 185.6 154.6 190.8C157.933 195.867 159.6 201.733 159.6 208.4H136.6C135.533 203.467 133.4 199.933 130.2 197.8C127 195.533 122.067 194.4 115.4 194.4C108.867 194.4 103.933 195.4 100.6 197.4C97.2667 199.4 95.6 202.133 95.6 205.6C95.6 208.4 96.6 210.6 98.6 212.2C100.733 213.667 103.8 214.867 107.8 215.8C111.933 216.733 117.067 217.733 123.2 218.8C128.4 219.867 133.333 221.067 138 222.4C142.8 223.733 147.067 225.467 150.8 227.6C154.533 229.6 157.467 232.333 159.6 235.8C161.867 239.133 163 243.4 163 248.6C163 255 161.133 260.4 157.4 264.8C153.8 269.2 148.6 272.6 141.8 275C135 277.267 126.867 278.4 117.4 278.4C109 278.4 101.733 277.533 95.6 275.8C89.6 273.933 84.6 271.6 80.6 268.8C76.6 265.867 73.4667 262.8 71.2 259.6C69.0667 256.267 67.6 253.133 66.8 250.2C66 247.267 65.7334 244.867 66 243Z" fill="white"/>
<path d="M184.691 136.6H210.691V276H184.691V136.6ZM294.491 176.6L235.291 228.8L235.891 212.8L299.091 276H266.091L211.291 220.2L259.091 176.6H294.491Z" fill="white"/>
<path d="M342.573 133V155.8H312.373V133H342.573ZM314.373 176.6H340.373V276H314.373V176.6Z" fill="white"/>
<path d="M368.289 136.6H394.289V276H368.289V136.6Z" fill="white"/>
<path d="M422.586 136.6H448.586V276H422.586V136.6Z" fill="white"/>
<path d="M470.883 243H494.883C496.35 247.533 499.35 251.267 503.883 254.2C508.55 257 514.616 258.4 522.083 258.4C527.15 258.4 531.083 257.933 533.883 257C536.683 256.067 538.616 254.733 539.683 253C540.749 251.133 541.283 249.067 541.283 246.8C541.283 244 540.416 241.867 538.683 240.4C536.949 238.8 534.283 237.533 530.683 236.6C527.083 235.667 522.483 234.8 516.883 234C511.283 233.067 505.883 231.933 500.683 230.6C495.483 229.267 490.883 227.533 486.883 225.4C482.883 223.133 479.683 220.333 477.283 217C475.016 213.533 473.883 209.333 473.883 204.4C473.883 199.6 475.016 195.333 477.283 191.6C479.683 187.867 482.95 184.733 487.083 182.2C491.35 179.667 496.283 177.733 501.883 176.4C507.616 175.067 513.75 174.4 520.283 174.4C530.15 174.4 538.35 175.867 544.883 178.8C551.416 181.6 556.283 185.6 559.483 190.8C562.816 195.867 564.483 201.733 564.483 208.4H541.483C540.416 203.467 538.283 199.933 535.083 197.8C531.883 195.533 526.95 194.4 520.283 194.4C513.75 194.4 508.816 195.4 505.483 197.4C502.15 199.4 500.483 202.133 500.483 205.6C500.483 208.4 501.483 210.6 503.483 212.2C505.616 213.667 508.683 214.867 512.683 215.8C516.816 216.733 521.95 217.733 528.083 218.8C533.283 219.867 538.216 221.067 542.883 222.4C547.683 223.733 551.95 225.467 555.683 227.6C559.416 229.6 562.35 232.333 564.483 235.8C566.75 239.133 567.883 243.4 567.883 248.6C567.883 255 566.016 260.4 562.283 264.8C558.683 269.2 553.483 272.6 546.683 275C539.883 277.267 531.75 278.4 522.283 278.4C513.883 278.4 506.616 277.533 500.483 275.8C494.483 273.933 489.483 271.6 485.483 268.8C481.483 265.867 478.35 262.8 476.083 259.6C473.95 256.267 472.483 253.133 471.683 250.2C470.883 247.267 470.616 244.867 470.883 243Z" fill="white"/>
</g>
<path opacity="0.2" fill-rule="evenodd" clip-rule="evenodd" d="M-40.8673 311H-15.2725L-15.0486 311.692C-13.6636 315.973 -10.8304 319.527 -6.47116 322.351C-2.00914 325.024 3.8577 326.4 11.2 326.4C16.2246 326.4 20.0333 325.935 22.6838 325.051C25.3505 324.162 27.0392 322.944 27.9399 321.49C28.91 319.786 29.4 317.897 29.4 315.8C29.4 313.219 28.6114 311.397 27.154 310.163L27.1376 310.149L27.1217 310.135C25.5597 308.693 23.0725 307.481 19.549 306.568C15.9985 305.647 11.4385 304.787 5.85857 303.99L5.84706 303.988L5.83559 303.986C0.208958 303.049 -5.21913 301.91 -10.4484 300.569C-15.7119 299.219 -20.3888 297.459 -24.4706 295.282L-24.4819 295.276L-24.493 295.27C-28.6035 292.941 -31.9177 290.048 -34.4115 286.584L-34.4247 286.566L-34.437 286.547C-36.8289 282.889 -38 278.49 -38 273.4C-38 268.436 -36.8257 263.986 -34.4548 260.081L-34.4481 260.07L-34.4412 260.059C-31.9525 256.188 -28.5722 252.952 -24.3226 250.347L-24.3106 250.34C-19.9446 247.748 -14.9144 245.78 -9.23163 244.427L-9.22653 244.426C-3.41132 243.074 2.79863 242.4 9.39999 242.4C19.354 242.4 27.7021 243.878 34.4018 246.884C41.0836 249.749 46.1199 253.868 49.4438 259.263C52.8895 264.506 54.6 270.564 54.6 277.4V278.4H29.7931L29.6226 277.611C28.5931 272.85 26.5681 269.581 23.6453 267.632L23.6335 267.624L23.622 267.616C20.6727 265.527 15.9896 264.4 9.39999 264.4C2.93852 264.4 -1.78028 265.394 -4.88552 267.257C-7.96139 269.103 -9.40001 271.533 -9.40001 274.6C-9.40001 277.115 -8.52345 279.008 -6.80331 280.397C-4.81633 281.754 -1.89619 282.91 2.02346 283.825C6.13444 284.753 11.2492 285.75 17.3713 286.815L17.3862 286.817L17.4009 286.82C22.6219 287.891 27.5785 289.097 32.2704 290.437C37.1319 291.788 41.4725 293.548 45.2845 295.725C49.1544 297.801 52.2133 300.646 54.4398 304.257C56.8391 307.795 58 312.267 58 317.6C58 324.206 56.0681 329.841 52.1683 334.44C48.4253 339.012 43.0562 342.499 36.1328 344.943L36.1245 344.946L36.1162 344.949C29.1875 347.258 20.9418 348.4 11.4 348.4C2.93537 348.4 -4.42722 347.527 -10.672 345.762L-10.6846 345.759L-10.6971 345.755C-16.7689 343.866 -21.8686 341.493 -25.9735 338.619L-25.9825 338.613L-25.9914 338.606C-30.0562 335.626 -33.2733 332.485 -35.616 329.178L-35.6296 329.159L-35.6423 329.139C-37.8147 325.745 -39.3315 322.518 -40.1648 319.463C-40.9813 316.469 -41.2842 313.918 -40.99 311.859L-40.8673 311ZM53.6 304.8C51.4667 301.333 48.5333 298.6 44.8 296.6C41.0667 294.467 36.8 292.733 32 291.4C27.3333 290.067 22.4 288.867 17.2 287.8C11.0667 286.733 5.93332 285.733 1.79999 284.8C-2.20001 283.867 -5.26668 282.667 -7.40001 281.2C-9.40001 279.6 -10.4 277.4 -10.4 274.6C-10.4 271.133 -8.73335 268.4 -5.40001 266.4C-2.06668 264.4 2.86665 263.4 9.39999 263.4C16.0667 263.4 21 264.533 24.2 266.8C27.4 268.933 29.5333 272.467 30.6 277.4H53.6C53.6 277.065 53.5958 276.731 53.5873 276.4C53.4281 270.145 51.7656 264.612 48.6 259.8C45.4 254.6 40.5333 250.6 34 247.8C27.4667 244.867 19.2667 243.4 9.39999 243.4C2.86665 243.4 -3.26668 244.067 -9.00002 245.4C-14.6 246.733 -19.5333 248.667 -23.8 251.2C-27.9333 253.733 -31.2 256.867 -33.6 260.6C-35.8667 264.333 -37 268.6 -37 273.4C-37 278.333 -35.8667 282.533 -33.6 286C-31.2 289.333 -28 292.133 -24 294.4C-20 296.533 -15.4 298.267 -10.2 299.6C-5.00001 300.933 0.399986 302.067 5.99999 303C11.6 303.8 16.2 304.667 19.8 305.6C23.4 306.533 26.0667 307.8 27.8 309.4C29.5333 310.867 30.4 313 30.4 315.8C30.4 318.067 29.8667 320.133 28.8 322C27.7333 323.733 25.8 325.067 23 326C20.2 326.933 16.2667 327.4 11.2 327.4C3.73332 327.4 -2.33335 326 -7.00001 323.2C-11.5333 320.267 -14.5333 316.533 -16 312H-40C-40.2667 313.867 -40 316.267 -39.2 319.2C-38.4 322.133 -36.9333 325.267 -34.8 328.6C-32.5333 331.8 -29.4 334.867 -25.4 337.8C-21.4 340.6 -16.4 342.933 -10.4 344.8C-4.26668 346.533 2.99999 347.4 11.4 347.4C20.8667 347.4 29 346.267 35.8 344C42.6 341.6 47.8 338.2 51.4 333.8C55.1333 329.4 57 324 57 317.6C57 312.4 55.8667 308.133 53.6 304.8ZM77.6906 204.6H105.691V287.482L152.703 244.6H191.137L139.572 290.067L195.505 346H159.671L105.691 291.034V346H77.6906V204.6ZM104.691 205.6H78.6906V345H104.691V205.6ZM160.091 345H193.091L138.112 290.022L188.491 245.6H153.091L105.291 289.2L160.091 345ZM237.573 201V225.8H205.373V201H237.573ZM207.373 244.6H235.373V346H207.373V244.6ZM261.289 204.6H289.289V346H261.289V204.6ZM315.586 204.6H343.586V346H315.586V204.6ZM364.015 311H389.61L389.834 311.692C391.219 315.973 394.052 319.527 398.412 322.351C402.874 325.024 408.74 326.4 416.083 326.4C421.107 326.4 424.916 325.935 427.567 325.051C430.234 324.162 431.922 322.944 432.823 321.489C433.793 319.786 434.283 317.896 434.283 315.8C434.283 313.219 433.494 311.397 432.037 310.163L432.02 310.149L432.005 310.135C430.443 308.693 427.955 307.481 424.432 306.568C420.881 305.647 416.321 304.787 410.741 303.99L410.73 303.988L410.718 303.986C405.092 303.049 399.664 301.91 394.434 300.569C389.171 299.219 384.494 297.459 380.412 295.282L380.401 295.276L380.39 295.27C376.279 292.941 372.965 290.048 370.471 286.584L370.458 286.566L370.446 286.547C368.054 282.889 366.883 278.49 366.883 273.4C366.883 268.436 368.057 263.986 370.428 260.081L370.435 260.07L370.442 260.059C372.93 256.188 376.311 252.952 380.56 250.347L380.572 250.34C384.938 247.748 389.968 245.78 395.651 244.427L395.656 244.426C401.471 243.074 407.681 242.4 414.283 242.4C424.237 242.4 432.585 243.878 439.285 246.884C445.967 249.75 451.003 253.868 454.327 259.263C457.772 264.506 459.483 270.564 459.483 277.4V278.4H434.676L434.505 277.611C433.476 272.85 431.451 269.581 428.528 267.632L428.516 267.624L428.505 267.616C425.556 265.527 420.872 264.4 414.283 264.4C407.821 264.4 403.103 265.394 399.997 267.257C396.921 269.103 395.483 271.533 395.483 274.6C395.483 277.115 396.359 279.008 398.079 280.397C400.066 281.754 402.986 282.91 406.906 283.825C411.017 284.753 416.132 285.75 422.254 286.815L422.269 286.817L422.284 286.82C427.505 287.891 432.462 289.097 437.154 290.437C442.015 291.788 446.355 293.548 450.168 295.725C454.037 297.801 457.096 300.646 459.322 304.256C461.722 307.795 462.883 312.267 462.883 317.6C462.883 324.206 460.951 329.841 457.051 334.44C453.308 339.012 447.939 342.499 441.016 344.943L441.007 344.946L440.999 344.949C434.07 347.258 425.825 348.4 416.283 348.4C407.818 348.4 400.456 347.527 394.211 345.762L394.198 345.759L394.186 345.755C388.114 343.866 383.014 341.493 378.909 338.619L378.9 338.613L378.891 338.606C374.827 335.626 371.609 332.485 369.267 329.178L369.253 329.159L369.241 329.139C367.068 325.745 365.551 322.518 364.718 319.463C363.901 316.469 363.599 313.918 363.893 311.859L364.015 311ZM458.483 304.8C456.349 301.333 453.416 298.6 449.683 296.6C445.949 294.467 441.683 292.733 436.883 291.4C432.216 290.067 427.283 288.867 422.083 287.8C415.949 286.733 410.816 285.733 406.683 284.8C402.683 283.867 399.616 282.667 397.483 281.2C395.483 279.6 394.483 277.4 394.483 274.6C394.483 271.133 396.149 268.4 399.483 266.4C402.816 264.4 407.749 263.4 414.283 263.4C420.949 263.4 425.883 264.533 429.083 266.8C432.283 268.933 434.416 272.467 435.483 277.4H458.483C458.483 277.065 458.479 276.731 458.47 276.4C458.311 270.145 456.648 264.612 453.483 259.8C450.283 254.6 445.416 250.6 438.883 247.8C432.349 244.867 424.149 243.4 414.283 243.4C407.749 243.4 401.616 244.067 395.883 245.4C390.283 246.733 385.349 248.667 381.083 251.2C376.949 253.733 373.683 256.867 371.283 260.6C369.016 264.333 367.883 268.6 367.883 273.4C367.883 278.333 369.016 282.533 371.283 286C373.683 289.333 376.883 292.133 380.883 294.4C384.883 296.533 389.483 298.267 394.683 299.6C399.883 300.933 405.283 302.067 410.883 303C416.483 303.8 421.083 304.667 424.683 305.6C428.283 306.533 430.949 307.8 432.683 309.4C434.416 310.867 435.283 313 435.283 315.8C435.283 318.067 434.749 320.133 433.683 322C432.616 323.733 430.683 325.067 427.883 326C425.083 326.933 421.149 327.4 416.083 327.4C408.616 327.4 402.549 326 397.883 323.2C393.349 320.267 390.349 316.533 388.883 312H364.883C364.616 313.867 364.883 316.267 365.683 319.2C366.483 322.133 367.949 325.267 370.083 328.6C372.349 331.8 375.483 334.867 379.483 337.8C383.483 340.6 388.483 342.933 394.483 344.8C400.616 346.533 407.883 347.4 416.283 347.4C425.749 347.4 433.883 346.267 440.683 344C447.483 341.6 452.683 338.2 456.283 333.8C460.016 329.4 461.883 324 461.883 317.6C461.883 312.4 460.749 308.133 458.483 304.8ZM236.573 202H206.373V224.8H236.573V202ZM208.373 245.6V345H234.373V245.6H208.373ZM262.289 205.6V345H288.289V205.6H262.289ZM316.586 205.6V345H342.586V205.6H316.586Z" fill="white"/>
<path opacity="0.1" fill-rule="evenodd" clip-rule="evenodd" d="M-44.8673 564H-19.2725L-19.0486 564.692C-17.6636 568.973 -14.8304 572.527 -10.4712 575.351C-6.00914 578.024 -0.142296 579.4 7.19999 579.4C12.2246 579.4 16.0333 578.935 18.6838 578.051C21.3505 577.162 23.0392 575.944 23.9399 574.49C24.91 572.786 25.4 570.897 25.4 568.8C25.4 566.219 24.6114 564.397 23.154 563.163L23.1376 563.149L23.1217 563.135C21.5597 561.693 19.0725 560.481 15.549 559.568C11.9985 558.647 7.43854 557.787 1.85857 556.99L1.84706 556.988L1.83559 556.986C-3.79104 556.049 -9.21913 554.91 -14.4484 553.569C-19.7119 552.219 -24.3888 550.459 -28.4706 548.282L-28.4819 548.276L-28.493 548.27C-32.6035 545.941 -35.9177 543.048 -38.4115 539.584L-38.4247 539.566L-38.437 539.547C-40.8289 535.889 -42 531.49 -42 526.4C-42 521.436 -40.8257 516.986 -38.4548 513.081L-38.4481 513.07L-38.4412 513.059C-35.9525 509.188 -32.5722 505.952 -28.3226 503.347L-28.3106 503.34C-23.9446 500.748 -18.9144 498.78 -13.2316 497.427L-13.2265 497.426C-7.41132 496.074 -1.20137 495.4 5.39999 495.4C15.354 495.4 23.7021 496.878 30.4018 499.884C37.0836 502.749 42.1199 506.868 45.4438 512.263C48.8895 517.506 50.6 523.564 50.6 530.4V531.4H25.7931L25.6226 530.611C24.5931 525.85 22.5681 522.581 19.6453 520.632L19.6335 520.624L19.622 520.616C16.6727 518.527 11.9896 517.4 5.39999 517.4C-1.06148 517.4 -5.78028 518.394 -8.88552 520.257C-11.9614 522.103 -13.4 524.533 -13.4 527.6C-13.4 530.115 -12.5234 532.008 -10.8033 533.397C-8.81633 534.754 -5.89619 535.91 -1.97654 536.825C2.13444 537.753 7.24915 538.75 13.3713 539.815L13.3862 539.817L13.4009 539.82C18.6219 540.891 23.5785 542.097 28.2704 543.437C33.1319 544.788 37.4725 546.548 41.2845 548.725C45.1544 550.801 48.2133 553.646 50.4398 557.257C52.8391 560.795 54 565.267 54 570.6C54 577.206 52.0681 582.841 48.1683 587.44C44.4253 592.012 39.0562 595.499 32.1328 597.943L32.1245 597.946L32.1162 597.949C25.1875 600.258 16.9418 601.4 7.39999 601.4C-1.06463 601.4 -8.42722 600.527 -14.672 598.762L-14.6846 598.759L-14.6971 598.755C-20.7689 596.866 -25.8686 594.493 -29.9735 591.619L-29.9825 591.613L-29.9914 591.606C-34.0562 588.626 -37.2733 585.485 -39.616 582.178L-39.6296 582.159L-39.6423 582.139C-41.8147 578.745 -43.3315 575.518 -44.1648 572.463C-44.9813 569.469 -45.2842 566.918 -44.99 564.859L-44.8673 564ZM49.6 557.8C47.4667 554.333 44.5333 551.6 40.8 549.6C37.0667 547.467 32.8 545.733 28 544.4C23.3333 543.067 18.4 541.867 13.2 540.8C7.06665 539.733 1.93332 538.733 -2.20001 537.8C-6.20001 536.867 -9.26668 535.667 -11.4 534.2C-13.4 532.6 -14.4 530.4 -14.4 527.6C-14.4 524.133 -12.7333 521.4 -9.40001 519.4C-6.06668 517.4 -1.13335 516.4 5.39999 516.4C12.0667 516.4 17 517.533 20.2 519.8C23.4 521.933 25.5333 525.467 26.6 530.4H49.6C49.6 530.065 49.5958 529.731 49.5873 529.4C49.4281 523.145 47.7656 517.612 44.6 512.8C41.4 507.6 36.5333 503.6 30 500.8C23.4667 497.867 15.2667 496.4 5.39999 496.4C-1.13335 496.4 -7.26668 497.067 -13 498.4C-18.6 499.733 -23.5333 501.667 -27.8 504.2C-31.9333 506.733 -35.2 509.867 -37.6 513.6C-39.8667 517.333 -41 521.6 -41 526.4C-41 531.333 -39.8667 535.533 -37.6 539C-35.2 542.333 -32 545.133 -28 547.4C-24 549.533 -19.4 551.267 -14.2 552.6C-9.00001 553.933 -3.60001 555.067 1.99999 556C7.59999 556.8 12.2 557.667 15.8 558.6C19.4 559.533 22.0667 560.8 23.8 562.4C25.5333 563.867 26.4 566 26.4 568.8C26.4 571.067 25.8667 573.133 24.8 575C23.7333 576.733 21.8 578.067 19 579C16.2 579.933 12.2667 580.4 7.19999 580.4C-0.266682 580.4 -6.33335 579 -11 576.2C-15.5333 573.267 -18.5333 569.533 -20 565H-44C-44.2667 566.867 -44 569.267 -43.2 572.2C-42.4 575.133 -40.9333 578.267 -38.8 581.6C-36.5333 584.8 -33.4 587.867 -29.4 590.8C-25.4 593.6 -20.4 595.933 -14.4 597.8C-8.26668 599.533 -1.00001 600.4 7.39999 600.4C16.8667 600.4 25 599.267 31.8 597C38.6 594.6 43.8 591.2 47.4 586.8C51.1333 582.4 53 577 53 570.6C53 565.4 51.8667 561.133 49.6 557.8ZM73.6906 457.6H101.691V540.482L148.703 497.6H187.137L135.572 543.067L191.505 599H155.671L101.691 544.034V599H73.6906V457.6ZM100.691 458.6H74.6906V598H100.691V458.6ZM156.091 598H189.091L134.112 543.022L184.491 498.6H149.091L101.291 542.2L156.091 598ZM233.573 454V478.8H201.373V454H233.573ZM203.373 497.6H231.373V599H203.373V497.6ZM257.289 457.6H285.289V599H257.289V457.6ZM311.586 457.6H339.586V599H311.586V457.6ZM360.015 564H385.61L385.834 564.692C387.219 568.973 390.052 572.527 394.412 575.351C398.874 578.024 404.74 579.4 412.083 579.4C417.107 579.4 420.916 578.935 423.567 578.051C426.234 577.162 427.922 575.944 428.823 574.489C429.793 572.786 430.283 570.896 430.283 568.8C430.283 566.219 429.494 564.397 428.037 563.163L428.02 563.149L428.005 563.135C426.443 561.693 423.955 560.481 420.432 559.568C416.881 558.647 412.321 557.787 406.741 556.99L406.73 556.988L406.718 556.986C401.092 556.049 395.664 554.91 390.434 553.569C385.171 552.219 380.494 550.459 376.412 548.282L376.401 548.276L376.39 548.27C372.279 545.941 368.965 543.048 366.471 539.584L366.458 539.566L366.446 539.547C364.054 535.889 362.883 531.49 362.883 526.4C362.883 521.436 364.057 516.986 366.428 513.081L366.435 513.07L366.442 513.059C368.93 509.188 372.311 505.952 376.56 503.347L376.572 503.34C380.938 500.748 385.968 498.78 391.651 497.427L391.656 497.426C397.471 496.074 403.681 495.4 410.283 495.4C420.237 495.4 428.585 496.878 435.285 499.884C441.967 502.75 447.003 506.868 450.327 512.263C453.772 517.506 455.483 523.564 455.483 530.4V531.4H430.676L430.505 530.611C429.476 525.85 427.451 522.581 424.528 520.632L424.516 520.624L424.505 520.616C421.556 518.527 416.872 517.4 410.283 517.4C403.821 517.4 399.103 518.394 395.997 520.257C392.921 522.103 391.483 524.533 391.483 527.6C391.483 530.115 392.359 532.008 394.079 533.397C396.066 534.754 398.986 535.91 402.906 536.825C407.017 537.753 412.132 538.75 418.254 539.815L418.269 539.817L418.284 539.82C423.505 540.891 428.462 542.097 433.154 543.437C438.015 544.788 442.355 546.548 446.168 548.725C450.037 550.801 453.096 553.646 455.322 557.256C457.722 560.795 458.883 565.267 458.883 570.6C458.883 577.206 456.951 582.841 453.051 587.44C449.308 592.012 443.939 595.499 437.016 597.943L437.007 597.946L436.999 597.949C430.07 600.258 421.825 601.4 412.283 601.4C403.818 601.4 396.456 600.527 390.211 598.762L390.198 598.759L390.186 598.755C384.114 596.866 379.014 594.493 374.909 591.619L374.9 591.613L374.891 591.606C370.827 588.626 367.609 585.485 365.267 582.178L365.253 582.159L365.241 582.139C363.068 578.745 361.551 575.518 360.718 572.463C359.901 569.469 359.599 566.918 359.893 564.859L360.015 564ZM454.483 557.8C452.349 554.333 449.416 551.6 445.683 549.6C441.949 547.467 437.683 545.733 432.883 544.4C428.216 543.067 423.283 541.867 418.083 540.8C411.949 539.733 406.816 538.733 402.683 537.8C398.683 536.867 395.616 535.667 393.483 534.2C391.483 532.6 390.483 530.4 390.483 527.6C390.483 524.133 392.149 521.4 395.483 519.4C398.816 517.4 403.749 516.4 410.283 516.4C416.949 516.4 421.883 517.533 425.083 519.8C428.283 521.933 430.416 525.467 431.483 530.4H454.483C454.483 530.065 454.479 529.731 454.47 529.4C454.311 523.145 452.648 517.612 449.483 512.8C446.283 507.6 441.416 503.6 434.883 500.8C428.349 497.867 420.149 496.4 410.283 496.4C403.749 496.4 397.616 497.067 391.883 498.4C386.283 499.733 381.349 501.667 377.083 504.2C372.949 506.733 369.683 509.867 367.283 513.6C365.016 517.333 363.883 521.6 363.883 526.4C363.883 531.333 365.016 535.533 367.283 539C369.683 542.333 372.883 545.133 376.883 547.4C380.883 549.533 385.483 551.267 390.683 552.6C395.883 553.933 401.283 555.067 406.883 556C412.483 556.8 417.083 557.667 420.683 558.6C424.283 559.533 426.949 560.8 428.683 562.4C430.416 563.867 431.283 566 431.283 568.8C431.283 571.067 430.749 573.133 429.683 575C428.616 576.733 426.683 578.067 423.883 579C421.083 579.933 417.149 580.4 412.083 580.4C404.616 580.4 398.549 579 393.883 576.2C389.349 573.267 386.349 569.533 384.883 565H360.883C360.616 566.867 360.883 569.267 361.683 572.2C362.483 575.133 363.949 578.267 366.083 581.6C368.349 584.8 371.483 587.867 375.483 590.8C379.483 593.6 384.483 595.933 390.483 597.8C396.616 599.533 403.883 600.4 412.283 600.4C421.749 600.4 429.883 599.267 436.683 597C443.483 594.6 448.683 591.2 452.283 586.8C456.016 582.4 457.883 577 457.883 570.6C457.883 565.4 456.749 561.133 454.483 557.8ZM232.573 455H202.373V477.8H232.573V455ZM204.373 498.6V598H230.373V498.6H204.373ZM258.289 458.6V598H284.289V458.6H258.289ZM312.586 458.6V598H338.586V458.6H312.586Z" fill="url(#paint0_linear_103_73)"/>
<g opacity="0.1">
<path d="M-75 441H-51C-49.5333 445.533 -46.5333 449.267 -42 452.2C-37.3333 455 -31.2666 456.4 -23.8 456.4C-18.7333 456.4 -14.8 455.933 -12 455C-9.19998 454.067 -7.26664 452.733 -6.19997 451C-5.13331 449.133 -4.59998 447.067 -4.59998 444.8C-4.59998 442 -5.46664 439.867 -7.19997 438.4C-8.9333 436.8 -11.6 435.533 -15.2 434.6C-18.8 433.667 -23.4 432.8 -29 432C-34.6 431.067 -40 429.933 -45.2 428.6C-50.4 427.267 -55 425.533 -59 423.4C-63 421.133 -66.2 418.333 -68.6 415C-70.8666 411.533 -72 407.333 -72 402.4C-72 397.6 -70.8666 393.333 -68.6 389.6C-66.2 385.867 -62.9333 382.733 -58.8 380.2C-54.5333 377.667 -49.6 375.733 -44 374.4C-38.2666 373.067 -32.1333 372.4 -25.6 372.4C-15.7333 372.4 -7.5333 373.867 -0.999969 376.8C5.53336 379.6 10.4 383.6 13.6 388.8C16.9334 393.867 18.6 399.733 18.6 406.4H-4.39998C-5.46664 401.467 -7.59997 397.933 -10.8 395.8C-14 393.533 -18.9333 392.4 -25.6 392.4C-32.1333 392.4 -37.0666 393.4 -40.4 395.4C-43.7333 397.4 -45.4 400.133 -45.4 403.6C-45.4 406.4 -44.4 408.6 -42.4 410.2C-40.2666 411.667 -37.2 412.867 -33.2 413.8C-29.0666 414.733 -23.9333 415.733 -17.8 416.8C-12.6 417.867 -7.66664 419.067 -2.99998 420.4C1.80002 421.733 6.06669 423.467 9.80003 425.6C13.5334 427.6 16.4667 430.333 18.6 433.8C20.8667 437.133 22 441.4 22 446.6C22 453 20.1334 458.4 16.4 462.8C12.8 467.2 7.60003 470.6 0.800026 473C-5.99997 475.267 -14.1333 476.4 -23.6 476.4C-32 476.4 -39.2666 475.533 -45.4 473.8C-51.4 471.933 -56.4 469.6 -60.4 466.8C-64.4 463.867 -67.5333 460.8 -69.8 457.6C-71.9333 454.267 -73.4 451.133 -74.2 448.2C-75 445.267 -75.2666 442.867 -75 441Z" fill="white"/>
<path d="M43.6907 334.6H69.6907V474H43.6907V334.6ZM153.491 374.6L94.2907 426.8L94.8907 410.8L158.091 474H125.091L70.2906 418.2L118.091 374.6H153.491Z" fill="white"/>
<path d="M201.573 331V353.8H171.373V331H201.573ZM173.373 374.6H199.373V474H173.373V374.6Z" fill="white"/>
<path d="M227.289 334.6H253.289V474H227.289V334.6Z" fill="white"/>
<path d="M281.586 334.6H307.586V474H281.586V334.6Z" fill="white"/>
<path d="M329.883 441H353.883C355.35 445.533 358.35 449.267 362.883 452.2C367.55 455 373.616 456.4 381.083 456.4C386.15 456.4 390.083 455.933 392.883 455C395.683 454.067 397.616 452.733 398.683 451C399.749 449.133 400.283 447.067 400.283 444.8C400.283 442 399.416 439.867 397.683 438.4C395.949 436.8 393.283 435.533 389.683 434.6C386.083 433.667 381.483 432.8 375.883 432C370.283 431.067 364.883 429.933 359.683 428.6C354.483 427.267 349.883 425.533 345.883 423.4C341.883 421.133 338.683 418.333 336.283 415C334.016 411.533 332.883 407.333 332.883 402.4C332.883 397.6 334.016 393.333 336.283 389.6C338.683 385.867 341.95 382.733 346.083 380.2C350.35 377.667 355.283 375.733 360.883 374.4C366.616 373.067 372.75 372.4 379.283 372.4C389.15 372.4 397.35 373.867 403.883 376.8C410.416 379.6 415.283 383.6 418.483 388.8C421.816 393.867 423.483 399.733 423.483 406.4H400.483C399.416 401.467 397.283 397.933 394.083 395.8C390.883 393.533 385.95 392.4 379.283 392.4C372.75 392.4 367.816 393.4 364.483 395.4C361.15 397.4 359.483 400.133 359.483 403.6C359.483 406.4 360.483 408.6 362.483 410.2C364.616 411.667 367.683 412.867 371.683 413.8C375.816 414.733 380.95 415.733 387.083 416.8C392.283 417.867 397.216 419.067 401.883 420.4C406.683 421.733 410.95 423.467 414.683 425.6C418.416 427.6 421.35 430.333 423.483 433.8C425.75 437.133 426.883 441.4 426.883 446.6C426.883 453 425.016 458.4 421.283 462.8C417.683 467.2 412.483 470.6 405.683 473C398.883 475.267 390.75 476.4 381.283 476.4C372.883 476.4 365.616 475.533 359.483 473.8C353.483 471.933 348.483 469.6 344.483 466.8C340.483 463.867 337.35 460.8 335.083 457.6C332.95 454.267 331.483 451.133 330.683 448.2C329.883 445.267 329.616 442.867 329.883 441Z" fill="white"/>
</g>
</g>
<defs>
<linearGradient id="paint0_linear_103_73" x1="207" y1="488" x2="207" y2="598" gradientUnits="userSpaceOnUse">
<stop stop-color="white"/>
<stop offset="1" stop-color="white" stop-opacity="0"/>
</linearGradient>
<clipPath id="clip0_103_73">
<rect width="460" height="600" rx="40" fill="white"/>
</clipPath>
</defs>
</svg>
